<svg width="156" height="41" viewBox="0 0 156 41" fill="none" xmlns="http://www.w3.org/2000/svg">
<path fill-rule="evenodd" clip-rule="evenodd" d="M19.8253 0.0126506C19.0054 0.0221312 17.1001 0.0746778 16.4588 0.105483C15.0182 0.174739 14.5844 0.227925 14.073 0.398104C12.6988 0.855342 11.6075 1.7627 10.8682 3.06272C10.3894 3.9046 10.2439 4.35261 10.1673 5.22052C10.1383 5.54859 10.0953 6.66536 10.0611 7.9776C10.0505 8.38538 10.0356 8.7246 10.0281 8.73141C10.0205 8.73825 9.24141 8.75855 8.29673 8.77653C5.54145 8.829 4.79307 8.8779 3.96334 9.05976C3.39538 9.18426 2.86946 9.42592 2.40406 9.77625C2.08274 10.0181 1.34709 10.7366 1.04435 11.1041C0.426948 11.8537 0.190523 12.5964 0.0806517 14.1312C-0.00330471 15.3038 -0.0240259 21.8494 0.0524281 23.0419C0.100713 23.7946 0.180905 24.1195 0.381658 24.376C0.604424 24.6605 1.11154 24.839 1.49618 24.7683C2.17901 24.6427 2.6664 23.9774 2.81376 22.9695C2.9164 22.2675 3.12103 21.7343 3.52223 21.1235C4.17737 20.1262 5.11136 19.4838 6.34553 19.1816C7.0822 19.0012 7.56102 18.956 8.94942 18.9357L10.0556 18.9195V22.0067V25.0939L7.65778 25.1073C5.2212 25.1209 4.97604 25.1305 4.33937 25.2375C3.9125 25.3093 3.58599 25.4222 3.13631 25.6536C2.14518 26.1637 1.4214 26.8271 0.857063 27.7427C0.667467 28.0504 0.355853 28.705 0.257551 29.0021C0.0344551 29.6767 0.0228029 29.9174 0.00658869 34.1907C-0.00855369 38.1866 -0.0106423 38.1217 0.149301 38.639C0.237929 38.9257 0.422826 39.2899 0.603957 39.5346C0.901308 39.9363 1.50192 40.4323 1.9892 40.6787C2.56095 40.9677 3.2381 41.0721 3.74514 40.9494C4.29518 40.8163 4.83228 40.4758 5.69971 39.71C6.76867 38.7664 9.48701 36.0362 10.8501 34.5373C12.0119 33.2597 12.2656 32.9082 12.4755 32.2855C12.6855 31.6625 12.7456 31.1098 12.8186 29.1306C12.8426 28.4807 12.8707 27.9415 12.8811 27.9323C12.8914 27.923 13.2585 27.9005 13.6969 27.8821C14.6908 27.8404 15.5443 27.782 15.9916 27.7251C16.658 27.6403 17.3017 27.4601 17.709 27.2445C18.4394 26.8577 19.9412 25.48 22.5022 22.8473C23.2871 22.0404 23.89 21.3977 23.9595 21.2937C24.3678 20.6829 24.5363 19.9699 24.457 19.189C24.3282 17.9216 23.7504 17.0383 22.7235 16.5387C21.9731 16.1736 21.6103 16.1494 16.5756 16.1278L12.8312 16.1118V13.8663V11.6208L13.1953 11.6043C13.3956 11.5952 14.9013 11.5621 16.5412 11.5308C18.1812 11.4994 19.8012 11.4616 20.1413 11.4467C22.9911 11.3219 23.8482 10.9931 25.5836 9.35899C26.1997 8.7789 28.1676 6.78449 28.6557 6.24562C29.2986 5.53577 29.5581 5.20862 29.6782 4.9564C29.9968 4.28736 30.0989 3.06958 29.8933 2.39029C29.6741 1.66617 28.9661 0.881032 28.135 0.440308C27.7811 0.252669 27.5916 0.194312 27.1834 0.14727C26.1398 0.0269966 23.2161 -0.0264674 19.8253 0.0126506ZM27.077 3.08043C27.2225 3.23373 27.3415 3.38272 27.3415 3.41153C27.3415 3.53722 26.5784 4.40232 25.418 5.59213C24.1902 6.85105 23.2696 7.72535 22.7933 8.08478C22.475 8.32497 22.3464 8.39803 22.0873 8.48558C21.5044 8.68267 19.8481 8.75057 15.6096 8.75109L12.8231 8.75143L12.8395 7.47947C12.8623 5.72477 12.9282 5.04992 13.1159 4.65057C13.3732 4.10294 14.1478 3.34563 14.7059 3.09594C14.8912 3.01303 15.0713 2.97987 15.5381 2.94267C16.6966 2.85039 18.8946 2.814 23.7724 2.80643L26.8126 2.80171L27.077 3.08043ZM10.0556 13.8393V16.1191L9.23797 16.1194C7.63189 16.1199 6.45142 16.226 5.65849 16.4412C4.91082 16.6441 3.52199 17.3377 2.80051 17.8686C2.69512 17.9462 2.60055 18.0096 2.59038 18.0096C2.56604 18.0096 2.59929 16.4479 2.63534 15.8967C2.70364 14.8529 2.7885 14.076 2.88581 13.6038C2.93168 13.3813 2.96598 13.2906 3.05996 13.1436C3.27127 12.8132 3.74887 12.2976 4.06455 12.0592C4.40849 11.7994 4.51674 11.7492 4.81632 11.7105C5.51237 11.6207 6.81849 11.5765 9.14179 11.5643L10.0556 11.5595V13.8393ZM19.7661 18.9551C20.716 18.9825 21.2816 19.0311 21.5326 19.107C21.6832 19.1526 21.7082 19.1958 21.7075 19.4102C21.7067 19.6788 21.0754 20.4055 19.313 22.1661C17.0308 24.4462 16.5176 24.837 15.5889 25.0023C15.2864 25.0561 14.1253 25.1044 13.3946 25.0935L12.8449 25.0854L12.8378 22.041C12.834 20.3666 12.8367 18.981 12.8439 18.9619C12.8602 18.9185 18.3138 18.9132 19.7661 18.9551ZM10.0187 28.6997C10.0362 29.1737 10.0515 29.7617 10.0525 30.0064C10.0581 31.2907 9.87368 31.6112 8.00465 33.5644C6.65695 34.9728 4.85248 36.7622 3.97296 37.5622C3.42739 38.0585 3.27682 38.1748 3.20369 38.1562C3.11372 38.1334 2.78512 37.8221 2.70507 37.6838C2.55034 37.4167 2.55166 37.4475 2.59467 35.0719C2.66896 30.9689 2.70586 30.3286 2.89988 29.7772C2.99071 29.5191 3.31343 28.9476 3.50269 28.7099C3.95848 28.1373 4.58956 27.998 7.1425 27.9061C8.91487 27.8424 9.28359 27.8318 9.62959 27.8347L9.98685 27.8378L10.0187 28.6997Z" fill="#8047D7"/>
<path d="M40.304 14.7839H45.296V31.9999H40.304V14.7839ZM42.8 12.3839C41.8827 12.3839 41.136 12.1173 40.56 11.5839C39.984 11.0506 39.696 10.3893 39.696 9.59992C39.696 8.81059 39.984 8.14925 40.56 7.61592C41.136 7.08259 41.8827 6.81592 42.8 6.81592C43.7174 6.81592 44.464 7.07192 45.04 7.58392C45.616 8.09592 45.904 8.73592 45.904 9.50392C45.904 10.3359 45.616 11.0293 45.04 11.5839C44.464 12.1173 43.7174 12.3839 42.8 12.3839Z" fill="white"/>
<path d="M59.753 14.5279C61.8864 14.5279 63.6037 15.1679 64.905 16.4479C66.2277 17.7279 66.889 19.6266 66.889 22.1439V31.9999H61.897V22.9119C61.897 21.5466 61.5984 20.5333 61.001 19.8719C60.4037 19.1893 59.5397 18.8479 58.409 18.8479C57.1504 18.8479 56.1477 19.2426 55.401 20.0319C54.6544 20.7999 54.281 21.9519 54.281 23.4879V31.9999H49.289V14.7839H54.057V16.7999C54.7184 16.0746 55.5397 15.5199 56.521 15.1359C57.5024 14.7306 58.5797 14.5279 59.753 14.5279Z" fill="white"/>
<path d="M76.246 15.1679H80.662V19.0079H76.374V31.9999H71.382V19.0079H68.726V15.1679H71.382V14.3999C71.382 12.4373 71.958 10.8799 73.11 9.72792C74.2834 8.57592 75.926 7.99992 78.038 7.99992C78.7847 7.99992 79.4887 8.08525 80.15 8.25592C80.8327 8.40525 81.398 8.62925 81.846 8.92792L80.534 12.5439C79.958 12.1386 79.286 11.9359 78.518 11.9359C77.0034 11.9359 76.246 12.7679 76.246 14.4319V15.1679ZM85.718 14.7839H90.71V31.9999H85.718V14.7839ZM88.214 12.3839C87.2967 12.3839 86.55 12.1173 85.974 11.5839C85.398 11.0506 85.11 10.3893 85.11 9.59992C85.11 8.81059 85.398 8.14925 85.974 7.61592C86.55 7.08259 87.2967 6.81592 88.214 6.81592C89.1314 6.81592 89.878 7.07192 90.454 7.58392C91.03 8.09592 91.318 8.73592 91.318 9.50392C91.318 10.3359 91.03 11.0293 90.454 11.5839C89.878 12.1173 89.1314 12.3839 88.214 12.3839Z" fill="white"/>
<path d="M105.161 14.5279C107.294 14.5279 109.011 15.1679 110.313 16.4479C111.635 17.7279 112.297 19.6266 112.297 22.1439V31.9999H107.305V22.9119C107.305 21.5466 107.006 20.5333 106.409 19.8719C105.811 19.1893 104.947 18.8479 103.817 18.8479C102.558 18.8479 101.555 19.2426 100.809 20.0319C100.062 20.7999 99.6885 21.9519 99.6885 23.4879V31.9999H94.6965V14.7839H99.4645V16.7999C100.126 16.0746 100.947 15.5199 101.929 15.1359C102.91 14.7306 103.987 14.5279 105.161 14.5279Z" fill="white"/>
<path d="M116.182 14.7839H121.174V31.9999H116.182V14.7839ZM118.678 12.3839C117.76 12.3839 117.014 12.1173 116.438 11.5839C115.862 11.0506 115.574 10.3893 115.574 9.59992C115.574 8.81059 115.862 8.14925 116.438 7.61592C117.014 7.08259 117.76 6.81592 118.678 6.81592C119.595 6.81592 120.342 7.07192 120.918 7.58392C121.494 8.09592 121.782 8.73592 121.782 9.50392C121.782 10.3359 121.494 11.0293 120.918 11.5839C120.342 12.1173 119.595 12.3839 118.678 12.3839Z" fill="white"/>
<path d="M136.271 31.1679C135.78 31.5306 135.172 31.8079 134.447 31.9999C133.743 32.1706 132.996 32.2559 132.207 32.2559C130.159 32.2559 128.569 31.7333 127.439 30.6879C126.329 29.6426 125.775 28.1066 125.775 26.0799V19.0079H123.119V15.1679H125.775V10.9759H130.767V15.1679H135.055V19.0079H130.767V26.0159C130.767 26.7413 130.948 27.3066 131.311 27.7119C131.695 28.0959 132.228 28.2879 132.911 28.2879C133.7 28.2879 134.372 28.0746 134.927 27.6479L136.271 31.1679Z" fill="white"/>
<path d="M155.208 14.7839L147.432 33.0559C146.643 35.0399 145.662 36.4373 144.488 37.2479C143.336 38.0586 141.939 38.4639 140.296 38.4639C139.4 38.4639 138.515 38.3253 137.64 38.0479C136.766 37.7706 136.051 37.3866 135.496 36.8959L137.32 33.3439C137.704 33.6853 138.142 33.9519 138.632 34.1439C139.144 34.3359 139.646 34.4319 140.136 34.4319C140.819 34.4319 141.374 34.2613 141.8 33.9199C142.227 33.5999 142.611 33.0559 142.952 32.2879L143.016 32.1279L135.56 14.7839H140.712L145.544 26.4639L150.408 14.7839H155.208Z" fill="white"/>
</svg>
