<svg width="156" height="42" viewBox="0 0 156 42" fill="none" xmlns="http://www.w3.org/2000/svg">
<path fill-rule="evenodd" clip-rule="evenodd" d="M19.8253 0.512651C19.0054 0.522131 17.1001 0.574678 16.4588 0.605483C15.0182 0.674739 14.5844 0.727925 14.073 0.898104C12.6988 1.35534 11.6075 2.2627 10.8682 3.56272C10.3894 4.4046 10.2439 4.85261 10.1673 5.72052C10.1383 6.04859 10.0953 7.16536 10.0611 8.4776C10.0505 8.88538 10.0356 9.2246 10.0281 9.23141C10.0205 9.23825 9.24141 9.25855 8.29673 9.27653C5.54145 9.329 4.79307 9.3779 3.96334 9.55976C3.39538 9.68426 2.86946 9.92592 2.40406 10.2763C2.08274 10.5181 1.34709 11.2366 1.04435 11.6041C0.426948 12.3537 0.190523 13.0964 0.0806517 14.6312C-0.00330471 15.8038 -0.0240259 22.3494 0.0524281 23.5419C0.100713 24.2946 0.180905 24.6195 0.381658 24.876C0.604424 25.1605 1.11154 25.339 1.49618 25.2683C2.17901 25.1427 2.6664 24.4774 2.81376 23.4695C2.9164 22.7675 3.12103 22.2343 3.52223 21.6235C4.17737 20.6262 5.11136 19.9838 6.34553 19.6816C7.0822 19.5012 7.56102 19.456 8.94942 19.4357L10.0556 19.4195V22.5067V25.5939L7.65778 25.6073C5.2212 25.6209 4.97604 25.6305 4.33937 25.7375C3.9125 25.8093 3.58599 25.9222 3.13631 26.1536C2.14518 26.6637 1.4214 27.3271 0.857063 28.2427C0.667467 28.5504 0.355853 29.205 0.257551 29.5021C0.0344551 30.1767 0.0228029 30.4174 0.00658869 34.6907C-0.00855369 38.6866 -0.0106423 38.6217 0.149301 39.139C0.237929 39.4257 0.422826 39.7899 0.603957 40.0346C0.901308 40.4363 1.50192 40.9323 1.9892 41.1787C2.56095 41.4677 3.2381 41.5721 3.74514 41.4494C4.29518 41.3163 4.83228 40.9758 5.69971 40.21C6.76867 39.2664 9.48701 36.5362 10.8501 35.0373C12.0119 33.7597 12.2656 33.4082 12.4755 32.7855C12.6855 32.1625 12.7456 31.6098 12.8186 29.6306C12.8426 28.9807 12.8707 28.4415 12.8811 28.4323C12.8914 28.423 13.2585 28.4005 13.6969 28.3821C14.6908 28.3404 15.5443 28.282 15.9916 28.2251C16.658 28.1403 17.3017 27.9601 17.709 27.7445C18.4394 27.3577 19.9412 25.98 22.5022 23.3473C23.2871 22.5404 23.89 21.8977 23.9595 21.7937C24.3678 21.1829 24.5363 20.4699 24.457 19.689C24.3282 18.4216 23.7504 17.5383 22.7235 17.0387C21.9731 16.6736 21.6103 16.6494 16.5756 16.6278L12.8312 16.6118V14.3663V12.1208L13.1953 12.1043C13.3956 12.0952 14.9013 12.0621 16.5412 12.0308C18.1812 11.9994 19.8012 11.9616 20.1413 11.9467C22.9911 11.8219 23.8482 11.4931 25.5836 9.85899C26.1997 9.2789 28.1676 7.28449 28.6557 6.74562C29.2986 6.03577 29.5581 5.70862 29.6782 5.4564C29.9968 4.78736 30.0989 3.56958 29.8933 2.89029C29.6741 2.16617 28.9661 1.38103 28.135 0.940308C27.7811 0.752669 27.5916 0.694312 27.1834 0.64727C26.1398 0.526997 23.2161 0.473533 19.8253 0.512651ZM27.077 3.58043C27.2225 3.73373 27.3415 3.88272 27.3415 3.91153C27.3415 4.03722 26.5784 4.90232 25.418 6.09213C24.1902 7.35105 23.2696 8.22535 22.7933 8.58478C22.475 8.82497 22.3464 8.89803 22.0873 8.98558C21.5044 9.18267 19.8481 9.25057 15.6096 9.25109L12.8231 9.25143L12.8395 7.97947C12.8623 6.22477 12.9282 5.54992 13.1159 5.15057C13.3732 4.60294 14.1478 3.84563 14.7059 3.59594C14.8912 3.51303 15.0713 3.47987 15.5381 3.44267C16.6966 3.35039 18.8946 3.314 23.7724 3.30643L26.8126 3.30171L27.077 3.58043ZM10.0556 14.3393V16.6191L9.23797 16.6194C7.63189 16.6199 6.45142 16.726 5.65849 16.9412C4.91082 17.1441 3.52199 17.8377 2.80051 18.3686C2.69512 18.4462 2.60055 18.5096 2.59038 18.5096C2.56604 18.5096 2.59929 16.9479 2.63534 16.3967C2.70364 15.3529 2.7885 14.576 2.88581 14.1038C2.93168 13.8813 2.96598 13.7906 3.05996 13.6436C3.27127 13.3132 3.74887 12.7976 4.06455 12.5592C4.40849 12.2994 4.51674 12.2492 4.81632 12.2105C5.51237 12.1207 6.81849 12.0765 9.14179 12.0643L10.0556 12.0595V14.3393ZM19.7661 19.4551C20.716 19.4825 21.2816 19.5311 21.5326 19.607C21.6832 19.6526 21.7082 19.6958 21.7075 19.9102C21.7067 20.1788 21.0754 20.9055 19.313 22.6661C17.0308 24.9462 16.5176 25.337 15.5889 25.5023C15.2864 25.5561 14.1253 25.6044 13.3946 25.5935L12.8449 25.5854L12.8378 22.541C12.834 20.8666 12.8367 19.481 12.8439 19.4619C12.8602 19.4185 18.3138 19.4132 19.7661 19.4551ZM10.0187 29.1997C10.0362 29.6737 10.0515 30.2617 10.0525 30.5064C10.0581 31.7907 9.87368 32.1112 8.00465 34.0644C6.65695 35.4728 4.85248 37.2622 3.97296 38.0622C3.42739 38.5585 3.27682 38.6748 3.20369 38.6562C3.11372 38.6334 2.78512 38.3221 2.70507 38.1838C2.55034 37.9167 2.55166 37.9475 2.59467 35.5719C2.66896 31.4689 2.70586 30.8286 2.89988 30.2772C2.99071 30.0191 3.31343 29.4476 3.50269 29.2099C3.95848 28.6373 4.58956 28.498 7.1425 28.4061C8.91487 28.3424 9.28359 28.3318 9.62959 28.3347L9.98685 28.3378L10.0187 29.1997Z" fill="#8047D7"/>
<path d="M40.304 15.2839H45.296V32.4999H40.304V15.2839ZM42.8 12.8839C41.8827 12.8839 41.136 12.6173 40.56 12.0839C39.984 11.5506 39.696 10.8893 39.696 10.0999C39.696 9.31059 39.984 8.64925 40.56 8.11592C41.136 7.58259 41.8827 7.31592 42.8 7.31592C43.7174 7.31592 44.464 7.57192 45.04 8.08392C45.616 8.59592 45.904 9.23592 45.904 10.0039C45.904 10.8359 45.616 11.5293 45.04 12.0839C44.464 12.6173 43.7174 12.8839 42.8 12.8839Z" fill="#030303"/>
<path d="M59.753 15.0279C61.8864 15.0279 63.6037 15.6679 64.905 16.9479C66.2277 18.2279 66.889 20.1266 66.889 22.6439V32.4999H61.897V23.4119C61.897 22.0466 61.5984 21.0333 61.001 20.3719C60.4037 19.6893 59.5397 19.3479 58.409 19.3479C57.1504 19.3479 56.1477 19.7426 55.401 20.5319C54.6544 21.2999 54.281 22.4519 54.281 23.9879V32.4999H49.289V15.2839H54.057V17.2999C54.7184 16.5746 55.5397 16.0199 56.521 15.6359C57.5024 15.2306 58.5797 15.0279 59.753 15.0279Z" fill="#030303"/>
<path d="M76.246 15.6679H80.662V19.5079H76.374V32.4999H71.382V19.5079H68.726V15.6679H71.382V14.8999C71.382 12.9373 71.958 11.3799 73.11 10.2279C74.2834 9.07592 75.926 8.49992 78.038 8.49992C78.7847 8.49992 79.4887 8.58525 80.15 8.75592C80.8327 8.90525 81.398 9.12925 81.846 9.42792L80.534 13.0439C79.958 12.6386 79.286 12.4359 78.518 12.4359C77.0034 12.4359 76.246 13.2679 76.246 14.9319V15.6679ZM85.718 15.2839H90.71V32.4999H85.718V15.2839ZM88.214 12.8839C87.2967 12.8839 86.55 12.6173 85.974 12.0839C85.398 11.5506 85.11 10.8893 85.11 10.0999C85.11 9.31059 85.398 8.64925 85.974 8.11592C86.55 7.58259 87.2967 7.31592 88.214 7.31592C89.1314 7.31592 89.878 7.57192 90.454 8.08392C91.03 8.59592 91.318 9.23592 91.318 10.0039C91.318 10.8359 91.03 11.5293 90.454 12.0839C89.878 12.6173 89.1314 12.8839 88.214 12.8839Z" fill="#030303"/>
<path d="M105.161 15.0279C107.294 15.0279 109.011 15.6679 110.313 16.9479C111.635 18.2279 112.297 20.1266 112.297 22.6439V32.4999H107.305V23.4119C107.305 22.0466 107.006 21.0333 106.409 20.3719C105.811 19.6893 104.947 19.3479 103.817 19.3479C102.558 19.3479 101.555 19.7426 100.809 20.5319C100.062 21.2999 99.6885 22.4519 99.6885 23.9879V32.4999H94.6965V15.2839H99.4645V17.2999C100.126 16.5746 100.947 16.0199 101.929 15.6359C102.91 15.2306 103.987 15.0279 105.161 15.0279Z" fill="#030303"/>
<path d="M116.182 15.2839H121.174V32.4999H116.182V15.2839ZM118.678 12.8839C117.76 12.8839 117.014 12.6173 116.438 12.0839C115.862 11.5506 115.574 10.8893 115.574 10.0999C115.574 9.31059 115.862 8.64925 116.438 8.11592C117.014 7.58259 117.76 7.31592 118.678 7.31592C119.595 7.31592 120.342 7.57192 120.918 8.08392C121.494 8.59592 121.782 9.23592 121.782 10.0039C121.782 10.8359 121.494 11.5293 120.918 12.0839C120.342 12.6173 119.595 12.8839 118.678 12.8839Z" fill="#030303"/>
<path d="M136.271 31.6679C135.78 32.0306 135.172 32.3079 134.447 32.4999C133.743 32.6706 132.996 32.7559 132.207 32.7559C130.159 32.7559 128.569 32.2333 127.439 31.1879C126.329 30.1426 125.775 28.6066 125.775 26.5799V19.5079H123.119V15.6679H125.775V11.4759H130.767V15.6679H135.055V19.5079H130.767V26.5159C130.767 27.2413 130.948 27.8066 131.311 28.2119C131.695 28.5959 132.228 28.7879 132.911 28.7879C133.7 28.7879 134.372 28.5746 134.927 28.1479L136.271 31.6679Z" fill="#030303"/>
<path d="M155.208 15.2839L147.432 33.5559C146.643 35.5399 145.662 36.9373 144.488 37.7479C143.336 38.5586 141.939 38.9639 140.296 38.9639C139.4 38.9639 138.515 38.8253 137.64 38.5479C136.766 38.2706 136.051 37.8866 135.496 37.3959L137.32 33.8439C137.704 34.1853 138.142 34.4519 138.632 34.6439C139.144 34.8359 139.646 34.9319 140.136 34.9319C140.819 34.9319 141.374 34.7613 141.8 34.4199C142.227 34.0999 142.611 33.5559 142.952 32.7879L143.016 32.6279L135.56 15.2839H140.712L145.544 26.9639L150.408 15.2839H155.208Z" fill="#030303"/>
</svg>
